<svg width="860" height="1020" viewBox="0 0 860 1020" xmlns="http://www.w3.org/2000/svg">
<defs>
<style>
@import url('https://fonts.googleapis.com/css2?family=Space+Mono:wght@400;700&amp;display=swap');

* { font-family: 'Space Mono', 'Courier New', monospace; }

/* ── animations ── */
@keyframes flicker {
  0%,93%,100%{opacity:1} 94%{opacity:.4} 95%{opacity:1} 96.5%{opacity:.15} 97%{opacity:1}
}
@keyframes blink  { 0%,100%{opacity:1} 50%{opacity:0} }
@keyframes pulse  { 0%,100%{opacity:1;r:3} 50%{opacity:.35;r:5.5} }
@keyframes slideL { from{opacity:0;transform:translateX(-12px)} to{opacity:1;transform:none} }
@keyframes fadeUp { from{opacity:0;transform:translateY(10px)}  to{opacity:1;transform:none} }
@keyframes barGrow{ from{width:0} }

.name    { animation: flicker 7s ease-in-out infinite; }
.cursor  { animation: blink 1s step-end infinite; }
.pdot    { animation: pulse 2s ease-in-out infinite; }

.b1 { animation: slideL .5s .7s ease both; }
.b2 { animation: slideL .5s .9s ease both; }
.b3 { animation: slideL .5s 1.1s ease both; }

.s1 { animation: fadeUp .6s .3s ease both; }
.s2 { animation: fadeUp .6s .5s ease both; }
.s3 { animation: fadeUp .6s .7s ease both; }
.s4 { animation: fadeUp .6s .9s ease both; }
.s5 { animation: fadeUp .6s 1.1s ease both; }

.bar1 { animation: barGrow 1.2s .8s ease both; }
.bar2 { animation: barGrow 1.2s 1.0s ease both; }
.bar3 { animation: barGrow 1.2s 1.2s ease both; }
.bar4 { animation: barGrow 1.2s 1.4s ease both; }
</style>

<!-- glow filter for name -->
<filter id="glow" x="-15%" y="-40%" width="130%" height="180%">
  <feGaussianBlur stdDeviation="4" result="b"/>
  <feMerge><feMergeNode in="b"/><feMergeNode in="SourceGraphic"/></feMerge>
</filter>

<!-- progress bar clip masks -->
<clipPath id="c1"><rect x="0" y="0" width="75%"  height="5" rx="2"/></clipPath>
<clipPath id="c2"><rect x="0" y="0" width="82%"  height="5" rx="2"/></clipPath>
<clipPath id="c3"><rect x="0" y="0" width="48%"  height="5" rx="2"/></clipPath>
<clipPath id="c4"><rect x="0" y="0" width="55%"  height="5" rx="2"/></clipPath>
</defs>

<!-- ═══════════════════════════════ BACKGROUND ═══════════════════════════════ -->
<rect width="860" height="1020" fill="#020817"/>

<!-- scanlines -->
<rect width="860" height="1020" fill="url(#scan)" opacity=".04"/>
<defs>
  <pattern id="scan" x="0" y="0" width="1" height="4" patternUnits="userSpaceOnUse">
    <rect width="860" height="2" fill="black"/>
  </pattern>
</defs>

<!-- outer border -->
<rect x="12" y="12" width="836" height="996" rx="6" fill="none" stroke="rgba(56,189,248,0.15)" stroke-width="0.5"/>

<!-- ═══════════════════════════════ HEADER ═══════════════════════════════ -->

<!-- macOS dots -->
<circle cx="38"  cy="38" r="5" fill="#F87171"/>
<circle cx="56"  cy="38" r="5" fill="#FBBF24"/>
<circle cx="74"  cy="38" r="5" fill="#34D399"/>
<text x="90" y="43" font-size="10" fill="#475569" letter-spacing="1">~/saurav-singh/profile.md</text>
<text x="820" y="43" font-size="10" fill="#475569" text-anchor="end">v2.0.26</text>

<!-- divider -->
<line x1="20" y1="56" x2="840" y2="56" stroke="rgba(56,189,248,0.15)" stroke-width=".5"/>

<!-- NAME with glow + flicker -->
<g class="name" filter="url(#glow)">
  <text x="32" y="112" font-size="46" font-weight="700" fill="#BAE6FD" letter-spacing="1">Saurav Singh</text>
</g>
<!-- blinking cursor -->
<rect class="cursor" x="338" y="76" width="3.5" height="42" rx="1" fill="#38BDF8"/>

<!-- tagline -->
<text x="32" y="134" font-size="11" fill="#818CF8" letter-spacing="2">// FULL STACK DEV · AI ENGINEER · DATA ALCHEMIST</text>

<!-- badges -->
<g class="b1">
  <rect x="32"  y="148" width="124" height="22" rx="2" fill="rgba(56,189,248,.07)" stroke="rgba(56,189,248,.25)" stroke-width=".5"/>
  <text x="94"  y="163" font-size="9" fill="#38BDF8" text-anchor="middle" letter-spacing="1">[ OPEN TO COLLAB ]</text>
</g>
<g class="b2">
  <rect x="162" y="148" width="96"  height="22" rx="2" fill="rgba(56,189,248,.07)" stroke="rgba(56,189,248,.25)" stroke-width=".5"/>
  <text x="210" y="163" font-size="9" fill="#38BDF8" text-anchor="middle" letter-spacing="1">[ MERN STACK ]</text>
</g>
<g class="b3">
  <rect x="264" y="148" width="82"  height="22" rx="2" fill="rgba(56,189,248,.07)" stroke="rgba(56,189,248,.25)" stroke-width=".5"/>
  <text x="305" y="163" font-size="9" fill="#38BDF8" text-anchor="middle" letter-spacing="1">[ LLM APPS ]</text>
</g>

<!-- ═══════════════════════════════ 01 ABOUT ═══════════════════════════════ -->
<line x1="20"  y1="196" x2="840" y2="196" stroke="rgba(56,189,248,.10)" stroke-width=".5"/>
<text x="32" y="212" font-size="9" fill="#475569" letter-spacing="3">01_ABOUT</text>
<line x1="104" y1="208" x2="840" y2="208" stroke="rgba(56,189,248,.12)" stroke-width=".5"/>

<rect x="32" y="222" width="3" height="48" fill="#4F46E5" rx="1"/>
<text x="44" y="238" font-size="11" fill="#94A3B8">BCA grad in Data Science &amp; Big Data Analytics. I turn ideas into scalable</text>
<text x="44" y="254" font-size="11" fill="#94A3B8">products combining modern frontends, intelligent backends, and AI capabilities.</text>
<text x="44" y="270" font-size="11" fill="#94A3B8">Currently deep in LLM workflows, agent systems, and autonomy engineering.</text>

<!-- ═══════════════════════════════ 02 TECH STACK ═══════════════════════════════ -->
<line x1="20"  y1="296" x2="840" y2="296" stroke="rgba(56,189,248,.10)" stroke-width=".5"/>
<text x="32" y="312" font-size="9" fill="#475569" letter-spacing="3">02_TECH_STACK</text>
<line x1="136" y1="308" x2="840" y2="308" stroke="rgba(56,189,248,.12)" stroke-width=".5"/>

<!-- helper macro: label + chips -->
<!-- FRONTEND -->
<g class="s1">
<text x="32"  y="334" font-size="9" fill="#475569" letter-spacing="1">FRONTEND</text>
<rect x="110" y="322" width="60"  height="17" rx="2" fill="rgba(129,140,248,.07)" stroke="rgba(129,140,248,.25)" stroke-width=".5"/><text x="140" y="334" font-size="9" fill="#818CF8" text-anchor="middle">React.js</text>
<rect x="174" y="322" width="56"  height="17" rx="2" fill="rgba(129,140,248,.07)" stroke="rgba(129,140,248,.25)" stroke-width=".5"/><text x="202" y="334" font-size="9" fill="#818CF8" text-anchor="middle">Next.js</text>
<rect x="234" y="322" width="56"  height="17" rx="2" fill="rgba(129,140,248,.07)" stroke="rgba(129,140,248,.25)" stroke-width=".5"/><text x="262" y="334" font-size="9" fill="#818CF8" text-anchor="middle">Tailwind</text>
<rect x="294" y="322" width="48"  height="17" rx="2" fill="rgba(129,140,248,.07)" stroke="rgba(129,140,248,.25)" stroke-width=".5"/><text x="318" y="334" font-size="9" fill="#818CF8" text-anchor="middle">HTML5</text>
<rect x="346" y="322" width="44"  height="17" rx="2" fill="rgba(129,140,248,.07)" stroke="rgba(129,140,248,.25)" stroke-width=".5"/><text x="368" y="334" font-size="9" fill="#818CF8" text-anchor="middle">CSS3</text>
</g>
<!-- BACKEND -->
<g class="s1">
<text x="32"  y="358" font-size="9" fill="#475569" letter-spacing="1">BACKEND</text>
<rect x="110" y="346" width="56"  height="17" rx="2" fill="rgba(129,140,248,.07)" stroke="rgba(129,140,248,.25)" stroke-width=".5"/><text x="138" y="358" font-size="9" fill="#818CF8" text-anchor="middle">Node.js</text>
<rect x="170" y="346" width="66"  height="17" rx="2" fill="rgba(129,140,248,.07)" stroke="rgba(129,140,248,.25)" stroke-width=".5"/><text x="203" y="358" font-size="9" fill="#818CF8" text-anchor="middle">Express.js</text>
<rect x="240" y="346" width="66"  height="17" rx="2" fill="rgba(129,140,248,.07)" stroke="rgba(129,140,248,.25)" stroke-width=".5"/><text x="273" y="358" font-size="9" fill="#818CF8" text-anchor="middle">REST APIs</text>
<rect x="310" y="346" width="36"  height="17" rx="2" fill="rgba(129,140,248,.07)" stroke="rgba(129,140,248,.25)" stroke-width=".5"/><text x="328" y="358" font-size="9" fill="#818CF8" text-anchor="middle">JWT</text>
</g>
<!-- DATABASE -->
<g class="s2">
<text x="32"  y="382" font-size="9" fill="#475569" letter-spacing="1">DATABASE</text>
<rect x="110" y="370" width="62"  height="17" rx="2" fill="rgba(129,140,248,.07)" stroke="rgba(129,140,248,.25)" stroke-width=".5"/><text x="141" y="382" font-size="9" fill="#818CF8" text-anchor="middle">MongoDB</text>
<rect x="176" y="370" width="48"  height="17" rx="2" fill="rgba(129,140,248,.07)" stroke="rgba(129,140,248,.25)" stroke-width=".5"/><text x="200" y="382" font-size="9" fill="#818CF8" text-anchor="middle">MySQL</text>
<rect x="228" y="370" width="56"  height="17" rx="2" fill="rgba(129,140,248,.07)" stroke="rgba(129,140,248,.25)" stroke-width=".5"/><text x="256" y="382" font-size="9" fill="#818CF8" text-anchor="middle">Firebase</text>
</g>
<!-- AI/ML -->
<g class="s2">
<text x="32"  y="406" font-size="9" fill="#475569" letter-spacing="1">AI / ML</text>
<rect x="110" y="394" width="50"  height="17" rx="2" fill="rgba(129,140,248,.07)" stroke="rgba(129,140,248,.25)" stroke-width=".5"/><text x="135" y="406" font-size="9" fill="#818CF8" text-anchor="middle">Python</text>
<rect x="164" y="394" width="72"  height="17" rx="2" fill="rgba(129,140,248,.07)" stroke="rgba(129,140,248,.25)" stroke-width=".5"/><text x="200" y="406" font-size="9" fill="#818CF8" text-anchor="middle">TensorFlow</text>
<rect x="240" y="394" width="38"  height="17" rx="2" fill="rgba(129,140,248,.07)" stroke="rgba(129,140,248,.25)" stroke-width=".5"/><text x="259" y="406" font-size="9" fill="#818CF8" text-anchor="middle">NLP</text>
<rect x="282" y="394" width="40"  height="17" rx="2" fill="rgba(129,140,248,.07)" stroke="rgba(129,140,248,.25)" stroke-width=".5"/><text x="302" y="406" font-size="9" fill="#818CF8" text-anchor="middle">LLMs</text>
<rect x="326" y="394" width="80"  height="17" rx="2" fill="rgba(129,140,248,.07)" stroke="rgba(129,140,248,.25)" stroke-width=".5"/><text x="366" y="406" font-size="9" fill="#818CF8" text-anchor="middle">OpenAI API</text>
</g>
<!-- ANALYTICS -->
<g class="s3">
<text x="32"  y="430" font-size="9" fill="#475569" letter-spacing="1">ANALYTICS</text>
<rect x="110" y="418" width="60"  height="17" rx="2" fill="rgba(129,140,248,.07)" stroke="rgba(129,140,248,.25)" stroke-width=".5"/><text x="140" y="430" font-size="9" fill="#818CF8" text-anchor="middle">Power BI</text>
<rect x="174" y="418" width="52"  height="17" rx="2" fill="rgba(129,140,248,.07)" stroke="rgba(129,140,248,.25)" stroke-width=".5"/><text x="200" y="430" font-size="9" fill="#818CF8" text-anchor="middle">Pandas</text>
<rect x="230" y="418" width="50"  height="17" rx="2" fill="rgba(129,140,248,.07)" stroke="rgba(129,140,248,.25)" stroke-width=".5"/><text x="255" y="430" font-size="9" fill="#818CF8" text-anchor="middle">NumPy</text>
</g>
<!-- TOOLS -->
<g class="s3">
<text x="32"  y="454" font-size="9" fill="#475569" letter-spacing="1">TOOLS</text>
<rect x="110" y="442" width="36"  height="17" rx="2" fill="rgba(129,140,248,.07)" stroke="rgba(129,140,248,.25)" stroke-width=".5"/><text x="128" y="454" font-size="9" fill="#818CF8" text-anchor="middle">Git</text>
<rect x="150" y="442" width="50"  height="17" rx="2" fill="rgba(129,140,248,.07)" stroke="rgba(129,140,248,.25)" stroke-width=".5"/><text x="175" y="454" font-size="9" fill="#818CF8" text-anchor="middle">Vercel</text>
<rect x="204" y="442" width="46"  height="17" rx="2" fill="rgba(129,140,248,.07)" stroke="rgba(129,140,248,.25)" stroke-width=".5"/><text x="227" y="454" font-size="9" fill="#818CF8" text-anchor="middle">Figma</text>
<rect x="254" y="442" width="42"  height="17" rx="2" fill="rgba(129,140,248,.07)" stroke="rgba(129,140,248,.25)" stroke-width=".5"/><text x="275" y="454" font-size="9" fill="#818CF8" text-anchor="middle">Clerk</text>
</g>

<!-- ═══════════════════════════════ 03 PROJECTS ═══════════════════════════════ -->
<line x1="20"  y1="478" x2="840" y2="478" stroke="rgba(56,189,248,.10)" stroke-width=".5"/>
<text x="32" y="494" font-size="9" fill="#475569" letter-spacing="3">03_FEATURED_PROJECTS</text>
<line x1="192" y1="490" x2="840" y2="490" stroke="rgba(56,189,248,.12)" stroke-width=".5"/>

<!-- card 1: DataPulse -->
<g class="s3">
<rect x="32"  y="504" width="390" height="80" rx="3" fill="#0A1628" stroke="rgba(56,189,248,.18)" stroke-width=".5"/>
<rect x="32"  y="504" width="3"   height="80" rx="1" fill="#38BDF8" opacity=".4"/>
<text x="44"  y="523" font-size="12" font-weight="700" fill="#BAE6FD">📊 DataPulse</text>
<text x="44"  y="540" font-size="9"  fill="#475569">Full-stack MERN analytics platform with interactive dashboards,</text>
<text x="44"  y="554" font-size="9"  fill="#475569">survey builder, and dataset analysis engine.</text>
<rect x="44"  y="561" width="38" height="14" rx="2" fill="rgba(56,189,248,.07)" stroke="rgba(56,189,248,.15)" stroke-width=".5"/><text x="63"  y="572" font-size="8" fill="#0EA5E9" text-anchor="middle">MERN</text>
<rect x="86"  y="561" width="52" height="14" rx="2" fill="rgba(56,189,248,.07)" stroke="rgba(56,189,248,.15)" stroke-width=".5"/><text x="112" y="572" font-size="8" fill="#0EA5E9" text-anchor="middle">DATA VIZ</text>
<rect x="142" y="561" width="52" height="14" rx="2" fill="rgba(56,189,248,.07)" stroke="rgba(56,189,248,.15)" stroke-width=".5"/><text x="168" y="572" font-size="8" fill="#0EA5E9" text-anchor="middle">SURVEYS</text>
</g>

<!-- card 2: CareerOS -->
<g class="s3">
<rect x="438" y="504" width="390" height="80" rx="3" fill="#0A1628" stroke="rgba(56,189,248,.18)" stroke-width=".5"/>
<rect x="438" y="504" width="3"   height="80" rx="1" fill="#38BDF8" opacity=".4"/>
<text x="450" y="523" font-size="12" font-weight="700" fill="#BAE6FD">🤖 CareerOS</text>
<text x="450" y="540" font-size="9"  fill="#475569">AI career assistant with resume analysis, skill detection,</text>
<text x="450" y="554" font-size="9"  fill="#475569">and personalized guidance chatbot powered by LLMs.</text>
<rect x="450" y="561" width="30"  height="14" rx="2" fill="rgba(56,189,248,.07)" stroke="rgba(56,189,248,.15)" stroke-width=".5"/><text x="465"  y="572" font-size="8" fill="#0EA5E9" text-anchor="middle">LLM</text>
<rect x="484" y="561" width="30"  height="14" rx="2" fill="rgba(56,189,248,.07)" stroke="rgba(56,189,248,.15)" stroke-width=".5"/><text x="499"  y="572" font-size="8" fill="#0EA5E9" text-anchor="middle">NLP</text>
<rect x="518" y="561" width="62"  height="14" rx="2" fill="rgba(56,189,248,.07)" stroke="rgba(56,189,248,.15)" stroke-width=".5"/><text x="549"  y="572" font-size="8" fill="#0EA5E9" text-anchor="middle">AI AGENT</text>
</g>

<!-- card 3: CabGPT -->
<g class="s4">
<rect x="32"  y="598" width="390" height="80" rx="3" fill="#0A1628" stroke="rgba(56,189,248,.18)" stroke-width=".5"/>
<rect x="32"  y="598" width="3"   height="80" rx="1" fill="#38BDF8" opacity=".4"/>
<text x="44"  y="617" font-size="12" font-weight="700" fill="#BAE6FD">🚖 CabGPT</text>
<text x="44"  y="634" font-size="9"  fill="#475569">NLP-driven cab booking workflow with real-time fare estimation</text>
<text x="44"  y="648" font-size="9"  fill="#475569">and dynamic pricing insights.</text>
<rect x="44"  y="655" width="30" height="14" rx="2" fill="rgba(56,189,248,.07)" stroke="rgba(56,189,248,.15)" stroke-width=".5"/><text x="59"  y="666" font-size="8" fill="#0EA5E9" text-anchor="middle">NLP</text>
<rect x="78"  y="655" width="30" height="14" rx="2" fill="rgba(56,189,248,.07)" stroke="rgba(56,189,248,.15)" stroke-width=".5"/><text x="93"  y="666" font-size="8" fill="#0EA5E9" text-anchor="middle">GPT</text>
<rect x="112" y="655" width="56" height="14" rx="2" fill="rgba(56,189,248,.07)" stroke="rgba(56,189,248,.15)" stroke-width=".5"/><text x="140" y="666" font-size="8" fill="#0EA5E9" text-anchor="middle">PRICING</text>
</g>

<!-- card 4: LinkedIn Agent -->
<g class="s4">
<rect x="438" y="598" width="390" height="80" rx="3" fill="#0A1628" stroke="rgba(56,189,248,.18)" stroke-width=".5"/>
<rect x="438" y="598" width="3"   height="80" rx="1" fill="#38BDF8" opacity=".4"/>
<text x="450" y="617" font-size="12" font-weight="700" fill="#BAE6FD">📈 LinkedIn Growth Agent</text>
<text x="450" y="634" font-size="9"  fill="#475569">Multi-agent AI system with RAG-based context retrieval</text>
<text x="450" y="648" font-size="9"  fill="#475569">for autonomous LinkedIn content generation.</text>
<rect x="450" y="655" width="72"  height="14" rx="2" fill="rgba(56,189,248,.07)" stroke="rgba(56,189,248,.15)" stroke-width=".5"/><text x="486"  y="666" font-size="8" fill="#0EA5E9" text-anchor="middle">MULTI-AGENT</text>
<rect x="526" y="655" width="30"  height="14" rx="2" fill="rgba(56,189,248,.07)" stroke="rgba(56,189,248,.15)" stroke-width=".5"/><text x="541"  y="666" font-size="8" fill="#0EA5E9" text-anchor="middle">RAG</text>
<rect x="560" y="655" width="70"  height="14" rx="2" fill="rgba(56,189,248,.07)" stroke="rgba(56,189,248,.15)" stroke-width=".5"/><text x="595"  y="666" font-size="8" fill="#0EA5E9" text-anchor="middle">AUTOMATION</text>
</g>

<!-- ═══════════════════════════════ 04 CURRENTLY LOADING ═══════════════════════════════ -->
<line x1="20"  y1="700" x2="840" y2="700" stroke="rgba(56,189,248,.10)" stroke-width=".5"/>
<text x="32" y="716" font-size="9" fill="#475569" letter-spacing="3">04_CURRENTLY_LOADING</text>
<line x1="214" y1="712" x2="840" y2="712" stroke="rgba(56,189,248,.12)" stroke-width=".5"/>

<!-- bar track bg -->
<rect x="230" y="730" width="530" height="5" rx="2" fill="#0F1F3D"/>
<rect x="230" y="752" width="530" height="5" rx="2" fill="#0F1F3D"/>
<rect x="230" y="774" width="530" height="5" rx="2" fill="#0F1F3D"/>
<rect x="230" y="796" width="530" height="5" rx="2" fill="#0F1F3D"/>

<!-- bar fills -->
<g class="bar1"><rect x="230" y="730" width="398" height="5" rx="2" fill="url(#barG)"/></g>
<g class="bar2"><rect x="230" y="752" width="435" height="5" rx="2" fill="url(#barG)"/></g>
<g class="bar3"><rect x="230" y="774" width="255" height="5" rx="2" fill="url(#barG)"/></g>
<g class="bar4"><rect x="230" y="796" width="292" height="5" rx="2" fill="url(#barG)"/></g>
<defs>
  <linearGradient id="barG" x1="0" y1="0" x2="1" y2="0">
    <stop offset="0%"   stop-color="#4F46E5"/>
    <stop offset="100%" stop-color="#38BDF8"/>
  </linearGradient>
</defs>

<!-- bar labels -->
<text x="32"  y="736" font-size="10" fill="#94A3B8">Advanced React &amp; Next.js</text>
<text x="32"  y="758" font-size="10" fill="#94A3B8">AI Agents &amp; LLM Workflows</text>
<text x="32"  y="780" font-size="10" fill="#94A3B8">Cloud &amp; DevOps</text>
<text x="32"  y="802" font-size="10" fill="#94A3B8">System Design</text>
<text x="770" y="736" font-size="10" fill="#38BDF8" text-anchor="end">75%</text>
<text x="770" y="758" font-size="10" fill="#38BDF8" text-anchor="end">82%</text>
<text x="770" y="780" font-size="10" fill="#38BDF8" text-anchor="end">48%</text>
<text x="770" y="802" font-size="10" fill="#38BDF8" text-anchor="end">55%</text>

<!-- ═══════════════════════════════ 05 CONNECT ═══════════════════════════════ -->
<line x1="20"  y1="826" x2="840" y2="826" stroke="rgba(56,189,248,.10)" stroke-width=".5"/>
<text x="32" y="842" font-size="9" fill="#475569" letter-spacing="3">05_CONNECT</text>
<line x1="102" y1="838" x2="840" y2="838" stroke="rgba(56,189,248,.12)" stroke-width=".5"/>

<!-- EMAIL -->
<g class="s5">
<rect x="32"  y="852" width="390" height="50" rx="3" fill="#0A1628" stroke="rgba(56,189,248,.18)" stroke-width=".5"/>
<text x="52"  y="873" font-size="9"  fill="#475569" letter-spacing="1">✉  EMAIL</text>
<text x="52"  y="891" font-size="10" fill="#818CF8">ss6621841@gmail.com</text>
</g>
<!-- LINKEDIN -->
<g class="s5">
<rect x="438" y="852" width="390" height="50" rx="3" fill="#0A1628" stroke="rgba(56,189,248,.18)" stroke-width=".5"/>
<text x="458" y="873" font-size="9"  fill="#475569" letter-spacing="1">🔗  LINKEDIN</text>
<text x="458" y="891" font-size="10" fill="#818CF8">linkedin.com/in/saurav-singh19</text>
</g>
<!-- PORTFOLIO -->
<g class="s5">
<rect x="32"  y="912" width="390" height="50" rx="3" fill="#0A1628" stroke="rgba(56,189,248,.18)" stroke-width=".5"/>
<text x="52"  y="933" font-size="9"  fill="#475569" letter-spacing="1">🌐  PORTFOLIO</text>
<text x="52"  y="951" font-size="10" fill="#818CF8">sauravsinghdev.netlify.app</text>
</g>
<!-- BASE -->
<g class="s5">
<rect x="438" y="912" width="390" height="50" rx="3" fill="#0A1628" stroke="rgba(56,189,248,.18)" stroke-width=".5"/>
<text x="458" y="933" font-size="9"  fill="#475569" letter-spacing="1">📍  BASE</text>
<text x="458" y="951" font-size="10" fill="#818CF8">Meerut, India 🇮🇳</text>
</g>

<!-- ═══════════════════════════════ FOOTER ═══════════════════════════════ -->
<line x1="20"  y1="978" x2="840" y2="978" stroke="rgba(56,189,248,.15)" stroke-width=".5"/>
<circle class="pdot" cx="36" cy="994" r="3" fill="#34D399"/>
<text x="48" y="998" font-size="9" fill="#475569" letter-spacing="1">SYSTEMS ONLINE · BUILDING IN PUBLIC · OPEN TO OPPORTUNITIES</text>

</svg>
